# Blender v2.80 (sub 45) OBJ File: 'tree.blend'
# www.blender.org
mtllib tree.mtl
o tree
v 0.000000 0.000000 -0.020000
v 0.000000 0.100064 -0.020000
v 0.017321 0.000000 -0.010000
v 0.017321 0.100064 -0.010000
v 0.017321 0.000000 0.010000
v 0.017321 0.100064 0.010000
v -0.000000 0.000000 0.020000
v 0.000000 0.100064 0.020000
v -0.017321 0.000000 0.010000
v -0.017321 0.100064 0.010000
v -0.017321 0.000000 -0.010000
v -0.017321 0.100064 -0.010000
vt 1.000000 0.500000
vt 1.000000 1.000000
vt 0.833333 1.000000
vt 0.833333 0.500000
vt 0.666667 1.000000
vt 0.666667 0.500000
vt 0.500000 1.000000
vt 0.500000 0.500000
vt 0.333333 1.000000
vt 0.333333 0.500000
vt 0.457846 0.370000
vt 0.250000 0.490000
vt 0.042154 0.370000
vt 0.042154 0.130000
vt 0.250000 0.010000
vt 0.457846 0.130000
vt 0.166667 1.000000
vt 0.166667 0.500000
vt -0.000000 1.000000
vt -0.000000 0.500000
vt 0.750000 0.490000
vt 0.957846 0.370000
vt 0.957846 0.130000
vt 0.750000 0.010000
vt 0.542154 0.130000
vt 0.542154 0.370000
vn 0.5000 -0.0000 -0.8660
vn 1.0000 -0.0000 0.0000
vn 0.5000 -0.0000 0.8660
vn -0.5000 0.0000 0.8660
vn 0.0000 1.0000 0.0000
vn -1.0000 0.0000 0.0000
vn -0.5000 0.0000 -0.8660
vn 0.0000 -1.0000 0.0000
usemtl Material
s off
f 1/1/1 2/2/1 4/3/1 3/4/1
f 3/4/2 4/3/2 6/5/2 5/6/2
f 5/6/3 6/5/3 8/7/3 7/8/3
f 7/8/4 8/7/4 10/9/4 9/10/4
f 4/11/5 2/12/5 12/13/5 10/14/5 8/15/5 6/16/5
f 9/10/6 10/9/6 12/17/6 11/18/6
f 11/18/7 12/17/7 2/19/7 1/20/7
f 1/21/8 3/22/8 5/23/8 7/24/8 9/25/8 11/26/8
o Cone
v 0.000000 0.077564 -0.100000
v 0.000000 0.132564 -0.072000
v 0.086603 0.077564 -0.050000
v 0.062354 0.132564 -0.036000
v 0.086603 0.077564 0.050000
v 0.062354 0.132564 0.036000
v -0.000000 0.077564 0.100000
v -0.000000 0.132564 0.072000
v -0.086603 0.077564 0.050000
v -0.062354 0.132564 0.036000
v -0.086603 0.077564 -0.050000
v -0.062354 0.132564 -0.036000
vt 1.000000 0.500000
vt 1.000000 1.000000
vt 0.833333 1.000000
vt 0.833333 0.500000
vt 0.666667 1.000000
vt 0.666667 0.500000
vt 0.500000 1.000000
vt 0.500000 0.500000
vt 0.333333 1.000000
vt 0.333333 0.500000
vt 0.457846 0.370000
vt 0.250000 0.490000
vt 0.042154 0.370000
vt 0.042154 0.130000
vt 0.250000 0.010000
vt 0.457846 0.130000
vt 0.166667 1.000000
vt 0.166667 0.500000
vt -0.000000 1.000000
vt -0.000000 0.500000
vt 0.750000 0.490000
vt 0.957846 0.370000
vt 0.957846 0.130000
vt 0.750000 0.010000
vt 0.542154 0.130000
vt 0.542154 0.370000
vn 0.4575 0.4034 -0.7924
vn 0.9150 0.4034 0.0000
vn 0.4575 0.4034 0.7924
vn -0.4575 0.4034 0.7924
vn 0.0000 1.0000 0.0000
vn -0.9150 0.4034 0.0000
vn -0.4575 0.4034 -0.7924
vn 0.0000 -1.0000 0.0000
usemtl Material
s off
f 13/27/9 14/28/9 16/29/9 15/30/9
f 15/30/10 16/29/10 18/31/10 17/32/10
f 17/32/11 18/31/11 20/33/11 19/34/11
f 19/34/12 20/33/12 22/35/12 21/36/12
f 16/37/13 14/38/13 24/39/13 22/40/13 20/41/13 18/42/13
f 21/36/14 22/35/14 24/43/14 23/44/14
f 23/44/15 24/43/15 14/45/15 13/46/15
f 13/47/16 15/48/16 17/49/16 19/50/16 21/51/16 23/52/16
o Cone.001_Cone.002
v -0.000000 0.132564 -0.095295
v 0.000000 0.186117 -0.057961
v 0.082528 0.132564 -0.047648
v 0.050196 0.186117 -0.028980
v 0.082528 0.132564 0.047648
v 0.050196 0.186117 0.028980
v -0.000000 0.132564 0.095295
v -0.000000 0.186117 0.057961
v -0.082528 0.132564 0.047648
v -0.050196 0.186117 0.028980
v -0.082528 0.132564 -0.047648
v -0.050196 0.186117 -0.028980
vt 1.000000 0.500000
vt 1.000000 1.000000
vt 0.833333 1.000000
vt 0.833333 0.500000
vt 0.666667 1.000000
vt 0.666667 0.500000
vt 0.500000 1.000000
vt 0.500000 0.500000
vt 0.333333 1.000000
vt 0.333333 0.500000
vt 0.457846 0.370000
vt 0.250000 0.490000
vt 0.042154 0.370000
vt 0.042154 0.130000
vt 0.250000 0.010000
vt 0.457846 0.130000
vt 0.166667 1.000000
vt 0.166667 0.500000
vt -0.000000 1.000000
vt -0.000000 0.500000
vt 0.750000 0.490000
vt 0.957846 0.370000
vt 0.957846 0.130000
vt 0.750000 0.010000
vt 0.542154 0.130000
vt 0.542154 0.370000
vn 0.4280 0.5169 -0.7414
vn 0.8561 0.5169 0.0000
vn 0.4280 0.5169 0.7414
vn -0.4280 0.5169 0.7414
vn 0.0000 1.0000 0.0000
vn -0.8561 0.5169 0.0000
vn -0.4280 0.5169 -0.7414
vn 0.0000 -1.0000 0.0000
usemtl Material
s off
f 25/53/17 26/54/17 28/55/17 27/56/17
f 27/56/18 28/55/18 30/57/18 29/58/18
f 29/58/19 30/57/19 32/59/19 31/60/19
f 31/60/20 32/59/20 34/61/20 33/62/20
f 28/63/21 26/64/21 36/65/21 34/66/21 32/67/21 30/68/21
f 33/62/22 34/61/22 36/69/22 35/70/22
f 35/70/23 36/69/23 26/71/23 25/72/23
f 25/73/24 27/74/24 29/75/24 31/76/24 33/77/24 35/78/24
o Cone.002_Cone.003
v 0.000000 0.185064 -0.088787
v 0.076891 0.185064 -0.044393
v 0.076891 0.185064 0.044393
v -0.000000 0.185064 0.088787
v -0.000000 0.312324 0.000000
v -0.076891 0.185064 0.044393
v -0.076891 0.185064 -0.044393
vt 0.250000 0.490000
vt 0.250000 0.250000
vt 0.457846 0.370000
vt 0.457846 0.130000
vt 0.250000 0.010000
vt 0.042154 0.130000
vt 0.042154 0.370000
vt 0.750000 0.490000
vt 0.957846 0.370000
vt 0.957846 0.130000
vt 0.750000 0.010000
vt 0.542154 0.130000
vt 0.542154 0.370000
vn 0.4279 0.5171 -0.7412
vn 0.8559 0.5171 0.0000
vn 0.4279 0.5171 0.7412
vn -0.4279 0.5171 0.7412
vn -0.8559 0.5171 0.0000
vn -0.4279 0.5171 -0.7412
vn 0.0000 -1.0000 -0.0000
usemtl Material
s off
f 37/79/25 41/80/25 38/81/25
f 38/81/26 41/80/26 39/82/26
f 39/82/27 41/80/27 40/83/27
f 40/83/28 41/80/28 42/84/28
f 42/84/29 41/80/29 43/85/29
f 43/85/30 41/80/30 37/79/30
f 37/86/31 38/87/31 39/88/31 40/89/31 42/90/31 43/91/31
